<svg width="161" height="24" viewBox="0 0 161 24" fill="none" xmlns="http://www.w3.org/2000/svg">
<path d="M21.7506 15.145H21.6454C21.5658 15.1223 21.4805 15.1137 21.3924 15.1137C21.3042 15.1137 21.2189 15.1251 21.1393 15.145H21.1108C21.2132 15.1137 21.3184 15.0967 21.4293 15.0967C21.5402 15.0967 21.6483 15.1137 21.7478 15.145H21.7506Z" fill="#008080"/>
<path d="M43.8764 0.423706V23.5763H38.3768V7.14597L37.501 8.83507L36.4091 10.9393L35.32 13.0436L34.2309 15.1479L33.1389 17.2521L32.0498 19.3564L30.9579 21.4607L29.8603 23.582H21.3664C20.9143 23.4483 20.5844 23.0275 20.5844 22.5298C20.5844 22.0066 20.9513 21.5659 21.4432 21.4578H24.4517C24.4972 21.472 24.5427 21.4777 24.5911 21.4834C24.6309 21.4891 24.6735 21.4919 24.7162 21.4919C24.8072 21.4919 24.8953 21.4806 24.9806 21.4578C25.4555 21.3412 25.8053 20.9118 25.8053 20.4028C25.8053 20.1242 25.7001 19.8711 25.5266 19.6777C25.393 19.5242 25.2138 19.4104 25.0119 19.3564C24.9181 19.328 24.8186 19.3137 24.7162 19.3137C24.6138 19.3137 24.5143 19.328 24.4205 19.3564H16.9134C16.4726 19.2171 16.1513 18.8047 16.1513 18.3156C16.1513 17.7981 16.5124 17.363 16.9958 17.2521H20.9115C21.0565 17.3204 21.2186 17.3602 21.3892 17.3602C21.5598 17.3602 21.7247 17.3204 21.8669 17.2521H21.6849C22.1626 17.1355 22.5152 16.7062 22.5152 16.1915C22.5152 15.6768 22.1911 15.2844 21.7446 15.1479C21.6423 15.1166 21.5371 15.0995 21.4262 15.0995C21.3153 15.0995 21.2072 15.1166 21.1077 15.1479H12.1788C11.7096 15.0313 11.3627 14.6047 11.3627 14.0986C11.3627 13.5924 11.7209 13.1545 12.2015 13.0436H16.5039C16.5863 13.0663 16.6745 13.0749 16.7626 13.0749C16.8508 13.0749 16.939 13.0635 17.0214 13.0436C17.4963 12.9299 17.8461 12.5033 17.8461 11.9915C17.8461 11.4796 17.4963 11.0559 17.0243 10.9393C16.9418 10.9166 16.8536 10.9052 16.7626 10.9052C16.6717 10.9052 16.5835 10.9166 16.501 10.9393H12.81C12.3323 10.8284 11.974 10.3991 11.974 9.8872C11.974 9.37536 12.3295 8.94597 12.8044 8.83507H18.2612C18.3352 8.85213 18.4148 8.86067 18.4944 8.86067C18.574 8.86067 18.6536 8.85213 18.7276 8.83507C19.211 8.72702 19.575 8.29763 19.575 7.7801C19.575 7.26256 19.2252 6.8474 18.756 6.73081C18.6735 6.70806 18.5854 6.69669 18.4944 6.69669C18.4034 6.69669 18.3153 6.70806 18.2328 6.73081H9.011C8.53327 6.61991 8.18066 6.19053 8.18066 5.67868C8.18066 5.16683 8.53611 4.73745 9.011 4.62655H16.6461C16.6859 4.63223 16.7228 4.63508 16.7655 4.63508C16.8081 4.63508 16.8451 4.63223 16.8849 4.62655C17.4138 4.56967 17.8262 4.11754 17.8262 3.57441C17.8262 3.03129 17.4252 2.59053 16.902 2.52513C16.8565 2.5166 16.811 2.51375 16.7655 2.51375C16.72 2.51375 16.6717 2.5166 16.629 2.52513H11.4565C10.9845 2.40854 10.6347 1.982 10.6347 1.47299C10.6347 0.96399 10.9816 0.540294 11.4508 0.423706H17.8717L18.9608 2.52797L20.0498 4.63223L21.1418 6.7365L22.2309 8.84076L23.3228 10.945L24.4119 13.0493L25.501 15.1536L26.593 17.2578H26.7949L27.8868 15.1536L28.9759 13.0493L30.065 10.945L31.1569 8.84076L32.246 6.7365L33.338 4.63223L34.4271 2.52797L35.5162 0.423706H43.8877L43.8764 0.423706Z" fill="#008080"/>
<path d="M21.8729 17.2493C21.7279 17.3175 21.5658 17.3573 21.3952 17.3573C21.2246 17.3573 21.0625 17.3175 20.9175 17.2493H21.8758H21.8729Z" fill="#008080"/>
<path d="M12.694 19.4019C13.2971 19.4019 13.7859 18.913 13.7859 18.31C13.7859 17.7069 13.2971 17.218 12.694 17.218C12.0909 17.218 11.6021 17.7069 11.6021 18.31C11.6021 18.913 12.0909 19.4019 12.694 19.4019Z" fill="#008080"/>
<path d="M9.31904 18.31C9.31904 18.7962 8.99771 19.2114 8.55695 19.3507H6.41003C5.96928 19.2114 5.64795 18.7991 5.64795 18.31C5.64795 17.7924 6.00909 17.3573 6.4925 17.2464H8.47733C8.96074 17.3573 9.32188 17.7924 9.32188 18.31H9.31904Z" fill="#008080"/>
<path d="M6.48295 5.68153C6.48295 6.19337 6.1275 6.62276 5.65262 6.73366H3.79859C3.32087 6.62276 2.96826 6.19337 2.96826 5.68153C2.96826 5.16968 3.32371 4.74029 3.79859 4.62939H5.65262C6.13034 4.74029 6.48295 5.16968 6.48295 5.68153Z" fill="#008080"/>
<path d="M10.5731 9.8872C10.5731 10.399 10.2148 10.8284 9.7371 10.9393H5.53426C5.05369 10.8284 4.69824 10.4019 4.69824 9.8872C4.69824 9.37251 5.05085 8.94597 5.52857 8.83507H9.74279C10.2205 8.94597 10.5731 9.37535 10.5731 9.8872Z" fill="#008080"/>
<path d="M9.19329 14.0957C9.19329 14.6019 8.84637 15.0256 8.37718 15.145H4.12031C3.65112 15.0256 3.3042 14.6019 3.3042 14.0957C3.3042 13.5896 3.66249 13.1517 4.14306 13.0408H8.35728C8.835 13.1517 9.19614 13.581 9.19614 14.0957H9.19329Z" fill="#008080"/>
<path d="M2.17251 1.47299C2.17251 1.982 1.82275 2.41138 1.34787 2.52513H0.824644C0.349763 2.40854 0 1.982 0 1.47299C0 0.96399 0.346919 0.543137 0.818957 0.423706H1.35355C1.82559 0.543137 2.17251 0.966833 2.17251 1.47299Z" fill="#008080"/>
<path d="M2.17251 9.88721C2.17251 10.3962 1.82275 10.8256 1.34787 10.9393H0.824644C0.349763 10.8228 0 10.3962 0 9.88721C0 9.3782 0.346919 8.95451 0.818957 8.83792H1.35355C1.82559 8.95735 2.17251 9.38105 2.17251 9.88721Z" fill="#008080"/>
<path d="M9.23593 1.47299C9.23593 1.982 8.88617 2.41138 8.41413 2.52513H4.65774C4.1857 2.40854 3.83594 1.982 3.83594 1.47299C3.83594 0.96399 4.18286 0.540294 4.65205 0.423706H8.42266C8.89186 0.543137 9.23878 0.966833 9.23878 1.47299H9.23593Z" fill="#008080"/>
<path d="M7.68931 22.527C7.68931 23.0218 7.35946 23.4426 6.90448 23.5791H6.27604C5.82107 23.4455 5.49121 23.0246 5.49121 22.527C5.49121 22.0009 5.86088 21.563 6.35282 21.455H6.8277C7.31965 21.563 7.68931 22.0038 7.68931 22.527Z" fill="#008080"/>
<path d="M18.12 22.527C18.12 23.0218 17.7901 23.4426 17.3351 23.5791H10.4138C9.96169 23.4455 9.63184 23.0246 9.63184 22.527C9.63184 22.0038 9.99866 21.563 10.4906 21.455H17.2584C17.7503 21.563 18.12 22.0009 18.12 22.527Z" fill="#008080"/>
<path d="M59.1581 17.8919H56.7382L52.9761 7.4218H55.3675L58.0206 15.3128L60.7334 7.4218H62.9514L59.1609 17.8919H59.1581Z" fill="#008080"/>
<path d="M71.192 17.8919H64.1484V7.4218H71.0897V9.34692H66.3636V11.5479H70.6518V13.4588H66.3636V15.9668H71.1892V17.8919H71.192Z" fill="#008080"/>
<path d="M72.9116 17.8919V7.4218H75.1296V15.8957H79.6794V17.8948H72.9116V17.8919Z" fill="#008080"/>
<path d="M79.7109 12.6427C79.7109 9.50617 82.0455 7.20285 85.0626 7.20285C88.0797 7.20285 90.4427 9.50617 90.4427 12.6427C90.4427 15.7791 88.0939 18.1109 85.0626 18.1109C82.0313 18.1109 79.7109 15.7763 79.7109 12.6427ZM88.1536 12.6427C88.1536 10.7175 86.9877 9.18484 85.0626 9.18484C83.1375 9.18484 81.9858 10.7175 81.9858 12.6427C81.9858 14.5678 83.1517 16.1289 85.0626 16.1289C86.9735 16.1289 88.1536 14.5678 88.1536 12.6427Z" fill="#008080"/>
<path d="M91.3643 12.6427C91.3643 9.5801 93.6676 7.20285 96.6135 7.20285C99.369 7.20285 101.527 9.03982 101.894 11.7242H99.5453C99.2979 10.2228 98.132 9.18768 96.642 9.18768C94.8477 9.18768 93.6391 10.601 93.6391 12.6455C93.6391 14.69 94.8505 16.1318 96.642 16.1318C98.1292 16.1318 99.2808 15.0825 99.5453 13.581H101.894C101.53 16.2938 99.3718 18.1166 96.6135 18.1166C93.6676 18.1166 91.3643 15.7251 91.3643 12.6483V12.6427Z" fill="#008080"/>
<path d="M103.441 17.8919V7.4218H105.659V17.8919H103.441Z" fill="#008080"/>
<path d="M110.265 17.8919V9.41801H106.969V7.41896H115.793V9.41801H112.483V17.8919H110.265Z" fill="#008080"/>
<path d="M122.05 17.8919H119.835V13.9536L116.13 7.41896H118.521L121.015 11.9261L123.552 7.41896H125.784L122.05 13.9536V17.8919Z" fill="#008080"/>
<path d="M128.965 10.9365V17.8919H126.952V7.4218H129.605L132.639 15.1791L135.687 7.4218H138.34V17.8919H136.327V10.8768L133.557 17.8919H131.706L128.965 10.9365Z" fill="#008080"/>
<path d="M139.873 12.6142C139.873 9.52323 142.119 7.20285 145.182 7.20285C147.835 7.20285 149.732 8.7782 150.417 11.0531H147.807C147.485 9.98958 146.524 9.18768 145.122 9.18768C143.43 9.18768 142.148 10.4275 142.148 12.6739C142.148 14.6872 143.271 16.2313 145.37 16.2313C146.917 16.2313 147.892 15.3128 148.185 14.0161H145.151V12.2502H150.548C150.679 15.6626 148.609 18.1137 145.267 18.1137C142.233 18.1137 139.873 15.8531 139.873 12.6171V12.6142Z" fill="#008080"/>
<path d="M152.095 17.8919V7.4218H156.192C158.831 7.4218 160.364 8.64739 160.364 10.8199C160.364 12.2332 159.488 13.3564 158.001 13.854L160.699 17.8948H158.061L155.698 14.1896H154.313V17.8948H152.095V17.8919ZM154.313 12.364H156.093C157.435 12.364 158.149 11.8379 158.149 10.8171C158.149 9.7962 157.435 9.25592 156.093 9.25592H154.313V12.3611V12.364Z" fill="#008080"/>
</svg>
