<svg width="1081" height="625" viewBox="0 0 1081 625" fill="none" xmlns="http://www.w3.org/2000/svg">
<rect width="1081" height="625" fill="url(#paint0_linear_628_1067)"/>
<path opacity="0.4" d="M540.93 321.333C553.816 321.333 564.263 310.887 564.263 298C564.263 285.113 553.816 274.667 540.93 274.667C528.043 274.667 517.596 285.113 517.596 298C517.596 310.887 528.043 321.333 540.93 321.333Z" fill="#5A5A5A"/>
<path d="M547.93 293.87L541.164 289.973C539.484 288.993 537.454 288.993 535.774 289.973C534.094 290.953 533.09 292.68 533.09 294.64V302.457C533.09 304.393 534.094 306.143 535.774 307.123C536.614 307.613 537.547 307.847 538.457 307.847C539.39 307.847 540.3 307.613 541.14 307.123L547.907 303.227C549.587 302.247 550.59 300.52 550.59 298.56C550.637 296.6 549.634 294.85 547.93 293.87Z" fill="white"/>
<defs>
<linearGradient id="paint0_linear_628_1067" x1="540.5" y1="0" x2="540.5" y2="625" gradientUnits="userSpaceOnUse">
<stop offset="0.0727853" stop-color="#2C2C2C" stop-opacity="0"/>
<stop offset="0.834196" stop-color="#121212" stop-opacity="0.86"/>
</linearGradient>
</defs>
</svg>
