<svg width="153" height="28" viewBox="0 0 153 28" fill="none" xmlns="http://www.w3.org/2000/svg">
<path d="M28.4149 17.8036H28.2775C28.1735 17.7761 28.062 17.7658 27.9469 17.7658C27.8317 17.7658 27.7203 17.7795 27.6162 17.8036H27.5791C27.7128 17.7658 27.8503 17.7451 27.9952 17.7451C28.14 17.7451 28.2812 17.7658 28.4112 17.8036H28.4149Z" fill="black"/>
<path d="M57.3201 0V28H50.1355V8.1297L48.9914 10.1724L47.5649 12.7173L46.1421 15.2621L44.7193 17.8069L43.2928 20.3518L41.87 22.8966L40.4435 25.4414L39.0096 28.0069H27.9133C27.3226 27.8452 26.8917 27.3363 26.8917 26.7345C26.8917 26.1017 27.3709 25.5687 28.0136 25.438H31.9439C32.0033 25.4552 32.0628 25.462 32.1259 25.4689C32.1779 25.4758 32.2337 25.4792 32.2894 25.4792C32.4083 25.4792 32.5234 25.4655 32.6349 25.438C33.2552 25.297 33.7122 24.7777 33.7122 24.1621C33.7122 23.8251 33.5747 23.519 33.3481 23.2852C33.1735 23.0995 32.9395 22.9619 32.6757 22.8966C32.5531 22.8622 32.4231 22.845 32.2894 22.845C32.1556 22.845 32.0256 22.8622 31.903 22.8966H22.0958C21.52 22.7281 21.1002 22.2294 21.1002 21.6379C21.1002 21.012 21.572 20.4859 22.2035 20.3518H27.3189C27.5084 20.4343 27.7201 20.4824 27.943 20.4824C28.1659 20.4824 28.3814 20.4343 28.5671 20.3518H28.3293C28.9534 20.2108 29.4141 19.6915 29.4141 19.069C29.4141 18.4466 28.9906 17.972 28.4074 17.8069C28.2736 17.7691 28.1362 17.7485 27.9913 17.7485C27.8464 17.7485 27.7052 17.7691 27.5752 17.8069H15.9106C15.2976 17.6659 14.8444 17.1501 14.8444 16.538C14.8444 15.9258 15.3125 15.3962 15.9403 15.2621H21.5609C21.6686 15.2896 21.7838 15.2999 21.8989 15.2999C22.0141 15.2999 22.1293 15.2862 22.237 15.2621C22.8574 15.1245 23.3143 14.6087 23.3143 13.9897C23.3143 13.3707 22.8574 12.8583 22.2407 12.7173C22.133 12.6898 22.0178 12.676 21.8989 12.676C21.7801 12.676 21.6649 12.6898 21.5572 12.7173H16.7353C16.1112 12.5831 15.6431 12.0639 15.6431 11.4449C15.6431 10.8258 16.1075 10.3066 16.7279 10.1724H23.8567C23.9532 10.1931 24.0573 10.2034 24.1613 10.2034C24.2653 10.2034 24.3693 10.1931 24.4659 10.1724C25.0974 10.0418 25.5729 9.52248 25.5729 8.89659C25.5729 8.2707 25.116 7.76861 24.503 7.62761C24.3953 7.6001 24.2802 7.58634 24.1613 7.58634C24.0424 7.58634 23.9272 7.6001 23.8195 7.62761H11.7722C11.1481 7.49349 10.6875 6.97421 10.6875 6.3552C10.6875 5.73618 11.1519 5.2169 11.7722 5.08278H21.7466C21.7986 5.08966 21.8469 5.0931 21.9026 5.0931C21.9584 5.0931 22.0067 5.08966 22.0587 5.08278C22.7496 5.014 23.2883 4.46721 23.2883 3.81037C23.2883 3.15352 22.7645 2.62049 22.081 2.54139C22.0215 2.53107 21.9621 2.52763 21.9026 2.52763C21.8432 2.52763 21.7801 2.53107 21.7243 2.54139H14.967C14.3503 2.40039 13.8934 1.88455 13.8934 1.26898C13.8934 0.653402 14.3466 0.140997 14.9596 0H23.3477L24.7705 2.54483L26.1933 5.08966L27.6198 7.63449L29.0426 10.1793L30.4691 12.7241L31.8919 15.269L33.3147 17.8138L34.7412 20.3586H35.0049L36.4314 17.8138L37.8542 15.269L39.277 12.7241L40.7035 10.1793L42.1263 7.63449L43.5528 5.08966L44.9756 2.54483L46.3984 0H57.3349L57.3201 0Z" fill="black"/>
<path d="M28.5744 20.3481C28.3849 20.4307 28.1732 20.4788 27.9503 20.4788C27.7274 20.4788 27.5156 20.4307 27.3262 20.3481H28.5781H28.5744Z" fill="black"/>
<path d="M16.5832 22.9517C17.3711 22.9517 18.0097 22.3604 18.0097 21.6311C18.0097 20.9018 17.3711 20.3105 16.5832 20.3105C15.7954 20.3105 15.1567 20.9018 15.1567 21.6311C15.1567 22.3604 15.7954 22.9517 16.5832 22.9517Z" fill="black"/>
<path d="M12.1738 21.6309C12.1738 22.219 11.754 22.721 11.1782 22.8896H8.37351C7.79771 22.721 7.37793 22.2224 7.37793 21.6309C7.37793 21.005 7.84972 20.4788 8.48124 20.3447H11.0742C11.7057 20.4788 12.1775 21.005 12.1775 21.6309H12.1738Z" fill="black"/>
<path d="M8.46998 6.35884C8.46998 6.97785 8.00562 7.49714 7.38524 7.63126H4.96316C4.33906 7.49714 3.87842 6.97785 3.87842 6.35884C3.87842 5.73983 4.34277 5.22055 4.96316 5.08643H7.38524C8.00934 5.22055 8.46998 5.73983 8.46998 6.35884Z" fill="black"/>
<path d="M13.8116 11.4448C13.8116 12.0638 13.3435 12.5831 12.7194 12.7172H7.22889C6.60108 12.5831 6.13672 12.0672 6.13672 11.4448C6.13672 10.8223 6.59736 10.3065 7.22146 10.1724H12.7269C13.351 10.3065 13.8116 10.8258 13.8116 11.4448Z" fill="black"/>
<path d="M12.0104 16.5346C12.0104 17.1468 11.5571 17.6592 10.9442 17.8036H5.38306C4.77011 17.6592 4.31689 17.1468 4.31689 16.5346C4.31689 15.9225 4.78497 15.3929 5.41278 15.2588H10.9182C11.5423 15.3929 12.0141 15.9122 12.0141 16.5346H12.0104Z" fill="black"/>
<path d="M2.83815 1.26898C2.83815 1.88455 2.38122 2.40383 1.76084 2.54139H1.07731C0.456927 2.40039 0 1.88455 0 1.26898C0 0.653402 0.453212 0.144436 1.06988 0H1.76827C2.38494 0.144436 2.83815 0.656841 2.83815 1.26898Z" fill="black"/>
<path d="M2.83815 11.4448C2.83815 12.0603 2.38122 12.5796 1.76084 12.7172H1.07731C0.456927 12.5762 0 12.0603 0 11.4448C0 10.8292 0.453212 10.3168 1.06988 10.1758H1.76827C2.38494 10.3202 2.83815 10.8326 2.83815 11.4448Z" fill="black"/>
<path d="M12.0657 1.26898C12.0657 1.88455 11.6088 2.40383 10.9921 2.54139H6.08482C5.46816 2.40039 5.01123 1.88455 5.01123 1.26898C5.01123 0.653402 5.46444 0.140997 6.07739 0H11.0033C11.6162 0.144436 12.0695 0.656841 12.0695 1.26898H12.0657Z" fill="black"/>
<path d="M10.0449 26.7311C10.0449 27.3294 9.614 27.8384 9.01962 28.0035H8.19864C7.60426 27.8418 7.17334 27.3329 7.17334 26.7311C7.17334 26.0949 7.65627 25.5653 8.29894 25.4346H8.91932C9.56199 25.5653 10.0449 26.0983 10.0449 26.7311Z" fill="black"/>
<path d="M23.6709 26.7311C23.6709 27.3294 23.2399 27.8384 22.6456 28.0035H13.6036C13.013 27.8418 12.582 27.3329 12.582 26.7311C12.582 26.0983 13.0612 25.5653 13.7039 25.4346H22.5453C23.1879 25.5653 23.6709 26.0949 23.6709 26.7311Z" fill="black"/>
<path d="M75.0436 12.6863H72.3132L68.0708 1.75732H70.7678L73.762 9.99363L76.8193 1.75732H79.3194L75.0436 12.6863Z" fill="black"/>
<path d="M88.6137 12.6863H80.6714V1.75732H88.4986V3.76568H83.1715V6.0629H88.0045V8.0575H83.1715V10.6745H88.6137V12.6829V12.6863Z" fill="black"/>
<path d="M90.5532 12.6863V1.75732H93.0533V10.6023H98.1835V12.6863H90.5532Z" fill="black"/>
<path d="M98.2168 7.20458C98.2168 3.93069 100.847 1.52686 104.253 1.52686C107.66 1.52686 110.32 3.93069 110.32 7.20458C110.32 10.4785 107.671 12.9132 104.253 12.9132C100.836 12.9132 98.2168 10.4785 98.2168 7.20458ZM107.738 7.20458C107.738 5.19622 106.423 3.59711 104.253 3.59711C102.084 3.59711 100.784 5.19622 100.784 7.20458C100.784 9.21293 102.099 10.843 104.253 10.843C106.408 10.843 107.738 9.21293 107.738 7.20458Z" fill="black"/>
<path d="M111.36 7.20458C111.36 4.00634 113.957 1.52686 117.281 1.52686C120.391 1.52686 122.824 3.44579 123.233 6.24511H120.584C120.305 4.67694 118.99 3.59711 117.311 3.59711C115.29 3.59711 113.923 5.07242 113.923 7.20458C113.923 9.33673 115.286 10.843 117.311 10.843C118.99 10.843 120.287 9.74597 120.584 8.1778H123.233C122.82 11.0081 120.387 12.9132 117.281 12.9132C113.96 12.9132 111.36 10.4166 111.36 7.20458Z" fill="black"/>
<path d="M124.975 12.6863V1.75732H127.475V12.6863H124.975Z" fill="black"/>
<path d="M132.672 12.6863V3.84133H128.957V1.75732H138.905V3.84133H135.172V12.6863H132.672Z" fill="black"/>
<path d="M145.96 12.6863H143.46V8.57678L139.285 1.75732H141.982L144.794 6.46182L147.654 1.75732H150.169L145.96 8.57678V12.6863Z" fill="black"/>
<path d="M71.4255 19.6742V26.9373H69.1558V16.0083H72.1499L75.5713 24.107L79.0076 16.0083H82.0017V26.9373H79.732V19.6158L76.6078 26.9373H74.52L71.4293 19.6742H71.4255Z" fill="black"/>
<path d="M91.4262 24.5885H86.8384L85.932 26.9339H83.417L87.8562 16.0049H90.5867L94.9925 26.9339H92.3141L91.4262 24.5885ZM87.5442 22.7452H90.7353L89.1564 18.5291L87.5442 22.7452Z" fill="black"/>
<path d="M98.7109 19.3063V26.9339H96.4263V16.0049H99.1232L104.272 23.2508V16.0049H106.575V26.9339H104.123L98.7146 19.3063H98.7109Z" fill="black"/>
<path d="M116.011 24.5885H111.423L110.517 26.9339H108.002L112.441 16.0049H115.172L119.577 26.9339H116.899L116.011 24.5885ZM112.129 22.7452H115.32L113.741 18.5291L112.129 22.7452Z" fill="black"/>
<path d="M119.633 21.4246C119.633 18.1989 122.166 15.7778 125.617 15.7778C128.612 15.7778 130.748 17.4217 131.52 19.798H128.578C128.218 18.6872 127.129 17.8481 125.554 17.8481C123.649 17.8481 122.2 19.1411 122.2 21.4865C122.2 23.5877 123.467 25.2006 125.833 25.2006C127.575 25.2006 128.678 24.2411 129.005 22.8862H125.584V21.0429H131.669C131.818 24.6056 129.481 27.1608 125.718 27.1608C122.296 27.1608 119.633 24.8017 119.633 21.4212V21.4246Z" fill="black"/>
<path d="M141.357 26.9339H133.415V16.0049H141.242V18.0132H135.915V20.3105H140.748V22.3051H135.915V24.9221H141.357V26.9305V26.9339Z" fill="black"/>
<path d="M143.296 26.9339V16.0049H147.918C150.893 16.0049 152.621 17.2842 152.621 19.5504C152.621 21.0258 151.633 22.1984 149.957 22.7177L153 26.9339H150.024L147.36 23.0685H145.796V26.9339H143.296ZM145.796 21.1633H147.803C149.314 21.1633 150.121 20.6165 150.121 19.5504C150.121 18.4844 149.314 17.9204 147.803 17.9204H145.796V21.1633Z" fill="black"/>
</svg>
