<?xml version="1.0" encoding="UTF-8"?>
<svg id="Layer_2" data-name="Layer 2" xmlns="http://www.w3.org/2000/svg" viewBox="0 0 411.86 81.42">
  <defs>
    <style>
      .cls-1 {
        fill: teal;
      }
    </style>
  </defs>
  <g id="Layer_1-2" data-name="Layer 1">
    <g>
      <g>
        <g>
          <path class="cls-1" d="M76.49,51.77h-.37c-.28-.08-.58-.11-.89-.11s-.61,.04-.89,.11h-.1c.36-.11,.73-.17,1.12-.17s.77,.06,1.12,.17Z"/>
          <path class="cls-1" d="M154.3,0V81.42h-19.34V23.64l-3.08,5.94-3.84,7.4-3.83,7.4-3.83,7.4-3.84,7.4-3.83,7.4-3.84,7.4-3.86,7.46h0s-29.87,0-29.87,0c-1.59-.47-2.75-1.95-2.75-3.7,0-1.84,1.29-3.39,3.02-3.77h10.58c.16,.05,.32,.07,.49,.09,.14,.02,.29,.03,.44,.03,.32,0,.63-.04,.93-.12,1.67-.41,2.9-1.92,2.9-3.71,0-.98-.37-1.87-.98-2.55-.47-.54-1.1-.94-1.81-1.13-.33-.1-.68-.15-1.04-.15s-.71,.05-1.04,.15h-26.4c-1.55-.49-2.68-1.94-2.68-3.66,0-1.82,1.27-3.35,2.97-3.74h13.77c.51,.24,1.08,.38,1.68,.38s1.18-.14,1.68-.38h-.64c1.68-.41,2.92-1.92,2.92-3.73s-1.14-3.19-2.71-3.67c-.36-.11-.73-.17-1.12-.17s-.77,.06-1.12,.17h-31.4c-1.65-.41-2.87-1.91-2.87-3.69s1.26-3.32,2.95-3.71h15.13c.29,.08,.6,.11,.91,.11s.62-.04,.91-.11c1.67-.4,2.9-1.9,2.9-3.7s-1.23-3.29-2.89-3.7c-.29-.08-.6-.12-.92-.12s-.63,.04-.92,.12h-12.98c-1.68-.39-2.94-1.9-2.94-3.7s1.25-3.31,2.92-3.7h19.19c.26,.06,.54,.09,.82,.09s.56-.03,.82-.09c1.7-.38,2.98-1.89,2.98-3.71s-1.23-3.28-2.88-3.69c-.29-.08-.6-.12-.92-.12s-.63,.04-.92,.12H31.69c-1.68-.39-2.92-1.9-2.92-3.7s1.25-3.31,2.92-3.7h26.85c.14,.02,.27,.03,.42,.03s.28-.01,.42-.03c1.86-.2,3.31-1.79,3.31-3.7s-1.41-3.46-3.25-3.69c-.16-.03-.32-.04-.48-.04s-.33,.01-.48,.04h-18.19c-1.66-.41-2.89-1.91-2.89-3.7s1.22-3.28,2.87-3.69h22.58l3.83,7.4,3.83,7.4,3.84,7.4,3.83,7.4,3.84,7.4,3.83,7.4,3.83,7.4,3.84,7.4h.71l3.84-7.4,3.83-7.4,3.83-7.4,3.84-7.4,3.83-7.4,3.84-7.4,3.83-7.4,3.83-7.4h29.44Z"/>
          <path class="cls-1" d="M76.92,59.17c-.51,.24-1.08,.38-1.68,.38s-1.17-.14-1.68-.38h3.37Z"/>
        </g>
        <circle class="cls-1" cx="44.64" cy="62.9" r="3.84"/>
        <path class="cls-1" d="M32.77,62.9c0,1.71-1.13,3.17-2.68,3.66h-7.55c-1.55-.49-2.68-1.94-2.68-3.66,0-1.82,1.27-3.35,2.97-3.74h6.98c1.7,.39,2.97,1.92,2.97,3.74Z"/>
        <path class="cls-1" d="M22.8,18.49c0,1.8-1.25,3.31-2.92,3.7h-6.52c-1.68-.39-2.92-1.9-2.92-3.7s1.25-3.31,2.92-3.7h6.52c1.68,.39,2.92,1.9,2.92,3.7Z"/>
        <path class="cls-1" d="M37.18,33.28c0,1.8-1.26,3.31-2.94,3.7h-14.78c-1.69-.39-2.94-1.89-2.94-3.7s1.24-3.31,2.92-3.7h14.82c1.68,.39,2.92,1.9,2.92,3.7Z"/>
        <path class="cls-1" d="M32.33,48.08c0,1.78-1.22,3.27-2.87,3.69H14.49c-1.65-.42-2.87-1.91-2.87-3.69s1.26-3.32,2.95-3.71h14.82c1.68,.39,2.95,1.9,2.95,3.71Z"/>
        <path class="cls-1" d="M7.64,3.69c0,1.79-1.23,3.3-2.9,3.7h-1.84c-1.67-.41-2.9-1.91-2.9-3.7S1.22,.42,2.88,0h1.88c1.66,.42,2.88,1.91,2.88,3.69Z"/>
        <path class="cls-1" d="M7.64,33.28c0,1.79-1.23,3.3-2.9,3.7h-1.84c-1.67-.41-2.9-1.91-2.9-3.7s1.22-3.28,2.88-3.69h1.88c1.66,.42,2.88,1.91,2.88,3.69Z"/>
        <path class="cls-1" d="M32.48,3.69c0,1.79-1.23,3.3-2.89,3.7h-13.21c-1.66-.41-2.89-1.91-2.89-3.7s1.22-3.28,2.87-3.69h13.26c1.65,.42,2.87,1.91,2.87,3.69Z"/>
        <path class="cls-1" d="M27.04,77.73c0,1.74-1.16,3.22-2.76,3.7h-2.21c-1.6-.47-2.76-1.95-2.76-3.7,0-1.85,1.3-3.39,3.03-3.77h1.67c1.73,.38,3.03,1.93,3.03,3.77Z"/>
        <path class="cls-1" d="M63.72,77.73c0,1.74-1.16,3.22-2.76,3.7h-24.34c-1.59-.47-2.75-1.95-2.75-3.7,0-1.84,1.29-3.39,3.02-3.77h23.8c1.73,.38,3.03,1.92,3.03,3.77Z"/>
      </g>
      <g>
        <path class="cls-1" d="M202.01,36.89h-7.35l-11.42-31.78h7.26l8.06,23.95,8.23-23.95h6.73l-11.51,31.78Z"/>
        <path class="cls-1" d="M238.54,36.89h-21.38V5.11h21.07v5.84h-14.34v6.68h13.01v5.8h-13.01v7.61h14.65v5.84Z"/>
        <path class="cls-1" d="M243.76,36.89V5.11h6.73V30.83h13.81v6.06h-20.54Z"/>
        <path class="cls-1" d="M264.39,20.95c0-9.52,7.08-16.51,16.25-16.51s16.33,6.99,16.33,16.51-7.13,16.6-16.33,16.6-16.25-7.08-16.25-16.6Zm25.63,0c0-5.84-3.54-10.49-9.38-10.49s-9.34,4.65-9.34,10.49,3.54,10.58,9.34,10.58,9.38-4.74,9.38-10.58Z"/>
        <path class="cls-1" d="M299.77,20.95c0-9.3,6.99-16.51,15.94-16.51,8.37,0,14.92,5.58,16.02,13.72h-7.13c-.75-4.56-4.29-7.7-8.81-7.7-5.44,0-9.12,4.29-9.12,10.49s3.67,10.58,9.12,10.58c4.52,0,8.01-3.19,8.81-7.75h7.13c-1.11,8.23-7.66,13.77-16.02,13.77-8.94,0-15.94-7.26-15.94-16.6Z"/>
        <path class="cls-1" d="M336.42,36.89V5.11h6.73v31.78h-6.73Z"/>
        <path class="cls-1" d="M357.14,36.89V11.17h-10V5.11h26.78v6.06h-10.05v25.72h-6.73Z"/>
        <path class="cls-1" d="M392.91,36.89h-6.73v-11.95l-11.24-19.83h7.26l7.57,13.68,7.7-13.68h6.77l-11.33,19.83v11.95Z"/>
        <path class="cls-1" d="M192.27,57.21v21.12h-6.11v-31.78h8.06l9.21,23.55,9.25-23.55h8.06v31.78h-6.11v-21.29l-8.41,21.29h-5.62l-8.32-21.12Z"/>
        <path class="cls-1" d="M246.11,71.5h-12.35l-2.44,6.82h-6.77l11.95-31.78h7.35l11.86,31.78h-7.21l-2.39-6.82Zm-10.45-5.36h8.59l-4.25-12.26-4.34,12.26Z"/>
        <path class="cls-1" d="M265.72,56.14v22.18h-6.15v-31.78h7.26l13.86,21.07v-21.07h6.2v31.78h-6.6l-14.56-22.18Z"/>
        <path class="cls-1" d="M312.29,71.5h-12.35l-2.44,6.82h-6.77l11.95-31.78h7.35l11.86,31.78h-7.21l-2.39-6.82Zm-10.45-5.36h8.59l-4.25-12.26-4.34,12.26Z"/>
        <path class="cls-1" d="M322.04,62.3c0-9.38,6.82-16.42,16.11-16.42,8.06,0,13.81,4.78,15.89,11.69h-7.92c-.97-3.23-3.9-5.67-8.14-5.67-5.13,0-9.03,3.76-9.03,10.58,0,6.11,3.41,10.8,9.78,10.8,4.69,0,7.66-2.79,8.54-6.73h-9.21v-5.36h16.38c.4,10.36-5.89,17.79-16.02,17.79-9.21,0-16.38-6.86-16.38-16.69Z"/>
        <path class="cls-1" d="M380.52,78.32h-21.38v-31.78h21.07v5.84h-14.34v6.68h13.01v5.8h-13.01v7.61h14.65v5.84Z"/>
        <path class="cls-1" d="M385.74,78.32v-31.78h12.44c8.01,0,12.66,3.72,12.66,10.31,0,4.29-2.66,7.7-7.17,9.21l8.19,12.26h-8.01l-7.17-11.24h-4.21v11.24h-6.73Zm6.73-16.78h5.4c4.07,0,6.24-1.59,6.24-4.69s-2.17-4.74-6.24-4.74h-5.4v9.43Z"/>
      </g>
    </g>
  </g>
</svg>