<svg width="161" height="24" viewBox="0 0 161 24" fill="none" xmlns="http://www.w3.org/2000/svg">
<path d="M21.7506 14.7212H21.6454C21.5658 14.6984 21.4805 14.6899 21.3924 14.6899C21.3042 14.6899 21.2189 14.7013 21.1393 14.7212H21.1108C21.2132 14.6899 21.3184 14.6729 21.4293 14.6729C21.5402 14.6729 21.6483 14.6899 21.7478 14.7212H21.7506Z" fill="black"/>
<path d="M43.8764 0V23.1526H38.3768V6.72227L37.501 8.41137L36.4091 10.5156L35.32 12.6199L34.2309 14.7242L33.1389 16.8284L32.0498 18.9327L30.9579 21.0369L29.8603 23.1583H21.3664C20.9143 23.0246 20.5844 22.6038 20.5844 22.1061C20.5844 21.5829 20.9513 21.1422 21.4432 21.0341H24.4517C24.4972 21.0483 24.5427 21.054 24.5911 21.0597C24.6309 21.0654 24.6735 21.0682 24.7162 21.0682C24.8072 21.0682 24.8953 21.0569 24.9806 21.0341C25.4555 20.9175 25.8053 20.4881 25.8053 19.9791C25.8053 19.7005 25.7001 19.4474 25.5266 19.254C25.393 19.1005 25.2138 18.9867 25.0119 18.9327C24.9181 18.9042 24.8186 18.89 24.7162 18.89C24.6138 18.89 24.5143 18.9042 24.4205 18.9327H16.9134C16.4726 18.7933 16.1513 18.381 16.1513 17.8919C16.1513 17.3744 16.5124 16.9393 16.9958 16.8284H20.9115C21.0565 16.8967 21.2186 16.9365 21.3892 16.9365C21.5598 16.9365 21.7247 16.8967 21.8669 16.8284H21.6849C22.1626 16.7118 22.5152 16.2824 22.5152 15.7678C22.5152 15.2531 22.1911 14.8607 21.7446 14.7242C21.6423 14.6929 21.5371 14.6758 21.4262 14.6758C21.3153 14.6758 21.2072 14.6929 21.1077 14.7242H12.1788C11.7096 14.6076 11.3627 14.181 11.3627 13.6749C11.3627 13.1687 11.7209 12.7308 12.2015 12.6199H16.5039C16.5863 12.6426 16.6745 12.6512 16.7626 12.6512C16.8508 12.6512 16.939 12.6398 17.0214 12.6199C17.4963 12.5062 17.8461 12.0796 17.8461 11.5678C17.8461 11.0559 17.4963 10.6322 17.0243 10.5156C16.9418 10.4929 16.8536 10.4815 16.7626 10.4815C16.6717 10.4815 16.5835 10.4929 16.501 10.5156H12.81C12.3323 10.4047 11.974 9.97535 11.974 9.4635C11.974 8.95165 12.3295 8.52227 12.8044 8.41137H18.2612C18.3352 8.42843 18.4148 8.43696 18.4944 8.43696C18.574 8.43696 18.6536 8.42843 18.7276 8.41137C19.211 8.30331 19.575 7.87393 19.575 7.35639C19.575 6.83886 19.2252 6.42369 18.756 6.3071C18.6735 6.28435 18.5854 6.27298 18.4944 6.27298C18.4034 6.27298 18.3153 6.28435 18.2328 6.3071H9.011C8.53327 6.1962 8.18066 5.76682 8.18066 5.25497C8.18066 4.74312 8.53611 4.31374 9.011 4.20284H16.6461C16.6859 4.20853 16.7228 4.21137 16.7655 4.21137C16.8081 4.21137 16.8451 4.20853 16.8849 4.20284C17.4138 4.14597 17.8262 3.69384 17.8262 3.15071C17.8262 2.60758 17.4252 2.16682 16.902 2.10142C16.8565 2.09289 16.811 2.09005 16.7655 2.09005C16.72 2.09005 16.6717 2.09289 16.629 2.10142H11.4565C10.9845 1.98483 10.6347 1.55829 10.6347 1.04929C10.6347 0.540284 10.9816 0.116588 11.4508 0H17.8717L18.9608 2.10426L20.0498 4.20853L21.1418 6.31279L22.2309 8.41705L23.3228 10.5213L24.4119 12.6256L25.501 14.7298L26.593 16.8341H26.7949L27.8868 14.7298L28.9759 12.6256L30.065 10.5213L31.1569 8.41705L32.246 6.31279L33.338 4.20853L34.4271 2.10426L35.5162 0H43.8877L43.8764 0Z" fill="black"/>
<path d="M21.8729 16.8257C21.7279 16.8939 21.5658 16.9337 21.3952 16.9337C21.2246 16.9337 21.0625 16.8939 20.9175 16.8257H21.8758H21.8729Z" fill="black"/>
<path d="M12.694 18.9783C13.2971 18.9783 13.7859 18.4894 13.7859 17.8864C13.7859 17.2833 13.2971 16.7944 12.694 16.7944C12.0909 16.7944 11.6021 17.2833 11.6021 17.8864C11.6021 18.4894 12.0909 18.9783 12.694 18.9783Z" fill="black"/>
<path d="M9.31904 17.8863C9.31904 18.3725 8.99771 18.7877 8.55695 18.927H6.41003C5.96928 18.7877 5.64795 18.3754 5.64795 17.8863C5.64795 17.3687 6.00909 16.9337 6.4925 16.8228H8.47733C8.96074 16.9337 9.32188 17.3687 9.32188 17.8863H9.31904Z" fill="black"/>
<path d="M6.48295 5.2577C6.48295 5.76955 6.1275 6.19893 5.65262 6.30983H3.79859C3.32087 6.19893 2.96826 5.76955 2.96826 5.2577C2.96826 4.74585 3.32371 4.31647 3.79859 4.20557H5.65262C6.13034 4.31647 6.48295 4.74585 6.48295 5.2577Z" fill="black"/>
<path d="M10.5731 9.46326C10.5731 9.97511 10.2148 10.4045 9.7371 10.5154H5.53426C5.05369 10.4045 4.69824 9.97796 4.69824 9.46326C4.69824 8.94857 5.05085 8.52203 5.52857 8.41113H9.74279C10.2205 8.52203 10.5731 8.95142 10.5731 9.46326Z" fill="black"/>
<path d="M9.19329 13.6722C9.19329 14.1783 8.84637 14.602 8.37718 14.7215H4.12031C3.65112 14.602 3.3042 14.1783 3.3042 13.6722C3.3042 13.166 3.66249 12.7281 4.14306 12.6172H8.35728C8.835 12.7281 9.19614 13.1575 9.19614 13.6722H9.19329Z" fill="black"/>
<path d="M2.17251 1.04929C2.17251 1.55829 1.82275 1.98768 1.34787 2.10142H0.824644C0.349763 1.98483 0 1.55829 0 1.04929C0 0.540284 0.346919 0.119431 0.818957 0H1.35355C1.82559 0.119431 2.17251 0.543127 2.17251 1.04929Z" fill="black"/>
<path d="M2.17251 9.46335C2.17251 9.97235 1.82275 10.4017 1.34787 10.5155H0.824644C0.349763 10.3989 0 9.97235 0 9.46335C0 8.95435 0.346919 8.53065 0.818957 8.41406H1.35355C1.82559 8.53349 2.17251 8.95719 2.17251 9.46335Z" fill="black"/>
<path d="M9.23593 1.04929C9.23593 1.55829 8.88617 1.98768 8.41413 2.10142H4.65774C4.1857 1.98483 3.83594 1.55829 3.83594 1.04929C3.83594 0.540284 4.18286 0.116588 4.65205 0H8.42266C8.89186 0.119431 9.23878 0.543127 9.23878 1.04929H9.23593Z" fill="black"/>
<path d="M7.68931 22.1033C7.68931 22.5981 7.35946 23.0189 6.90448 23.1554H6.27604C5.82107 23.0218 5.49121 22.6009 5.49121 22.1033C5.49121 21.5772 5.86088 21.1393 6.35282 21.0312H6.8277C7.31965 21.1393 7.68931 21.5801 7.68931 22.1033Z" fill="black"/>
<path d="M18.12 22.1033C18.12 22.5981 17.7901 23.0189 17.3351 23.1554H10.4138C9.96169 23.0218 9.63184 22.6009 9.63184 22.1033C9.63184 21.5801 9.99866 21.1393 10.4906 21.0312H17.2584C17.7503 21.1393 18.12 21.5772 18.12 22.1033Z" fill="black"/>
<path d="M59.1581 17.4682H56.7382L52.9761 6.99805H55.3675L58.0206 14.889L60.7334 6.99805H62.9514L59.1609 17.4682H59.1581Z" fill="black"/>
<path d="M71.192 17.4682H64.1484V6.99805H71.0897V8.92316H66.3636V11.1241H70.6518V13.035H66.3636V15.5431H71.1892V17.4682H71.192Z" fill="black"/>
<path d="M72.9116 17.4682V6.99805H75.1296V15.472H79.6794V17.471H72.9116V17.4682Z" fill="black"/>
<path d="M79.7109 12.2191C79.7109 9.08261 82.0455 6.7793 85.0626 6.7793C88.0797 6.7793 90.4427 9.08261 90.4427 12.2191C90.4427 15.3556 88.0939 17.6873 85.0626 17.6873C82.0313 17.6873 79.7109 15.3527 79.7109 12.2191ZM88.1536 12.2191C88.1536 10.294 86.9877 8.76129 85.0626 8.76129C83.1375 8.76129 81.9858 10.294 81.9858 12.2191C81.9858 14.1442 83.1517 15.7054 85.0626 15.7054C86.9735 15.7054 88.1536 14.1442 88.1536 12.2191Z" fill="black"/>
<path d="M91.3643 12.2191C91.3643 9.15655 93.6676 6.7793 96.6135 6.7793C99.369 6.7793 101.527 8.61626 101.894 11.3006H99.5453C99.2979 9.7992 98.132 8.76413 96.642 8.76413C94.8477 8.76413 93.6391 10.1774 93.6391 12.2219C93.6391 14.2665 94.8505 15.7082 96.642 15.7082C98.1292 15.7082 99.2808 14.6589 99.5453 13.1575H101.894C101.53 15.8703 99.3718 17.693 96.6135 17.693C93.6676 17.693 91.3643 15.3016 91.3643 12.2248V12.2191Z" fill="black"/>
<path d="M103.441 17.4682V6.99805H105.659V17.4682H103.441Z" fill="black"/>
<path d="M110.265 17.4686V8.99466H106.969V6.99561H115.793V8.99466H112.483V17.4686H110.265Z" fill="black"/>
<path d="M122.05 17.4686H119.835V13.5302L116.13 6.99561H118.521L121.015 11.5027L123.552 6.99561H125.784L122.05 13.5302V17.4686Z" fill="black"/>
<path d="M128.965 10.5127V17.4682H126.952V6.99805H129.605L132.639 14.7554L135.687 6.99805H138.34V17.4682H136.327V10.453L133.557 17.4682H131.706L128.965 10.5127Z" fill="black"/>
<path d="M139.873 12.1907C139.873 9.09967 142.119 6.7793 145.182 6.7793C147.835 6.7793 149.732 8.35465 150.417 10.6295H147.807C147.485 9.56602 146.524 8.76413 145.122 8.76413C143.43 8.76413 142.148 10.0039 142.148 12.2504C142.148 14.2636 143.271 15.8077 145.37 15.8077C146.917 15.8077 147.892 14.8892 148.185 13.5926H145.151V11.8267H150.548C150.679 15.239 148.609 17.6902 145.267 17.6902C142.233 17.6902 139.873 15.4295 139.873 12.1935V12.1907Z" fill="black"/>
<path d="M152.095 17.4682V6.99805H156.192C158.831 6.99805 160.364 8.22364 160.364 10.3961C160.364 11.8094 159.488 12.9326 158.001 13.4303L160.699 17.471H158.061L155.698 13.7658H154.313V17.471H152.095V17.4682ZM154.313 11.9402H156.093C157.435 11.9402 158.149 11.4142 158.149 10.3933C158.149 9.37245 157.435 8.83217 156.093 8.83217H154.313V11.9374V11.9402Z" fill="black"/>
</svg>
