<svg width="22" height="22" viewBox="0 0 22 22" fill="none" xmlns="http://www.w3.org/2000/svg">
<path d="M11 6.84615C10.1784 6.84615 9.37534 7.08977 8.69225 7.5462C8.00915 8.00263 7.47674 8.65138 7.16235 9.41039C6.84795 10.1694 6.76569 11.0046 6.92597 11.8104C7.08625 12.6161 7.48186 13.3563 8.06279 13.9372C8.64371 14.5181 9.38386 14.9138 10.1896 15.074C10.9954 15.2343 11.8306 15.152 12.5896 14.8377C13.3486 14.5233 13.9974 13.9909 14.4538 13.3078C14.9102 12.6247 15.1538 11.8216 15.1538 11C15.1527 9.89868 14.7147 8.8428 13.9359 8.06405C13.1572 7.2853 12.1013 6.8473 11 6.84615ZM11 13.7692C10.4523 13.7692 9.9169 13.6068 9.4615 13.3025C9.0061 12.9982 8.65116 12.5657 8.44156 12.0597C8.23197 11.5537 8.17713 10.9969 8.28398 10.4598C8.39083 9.92257 8.65457 9.42914 9.04186 9.04186C9.42914 8.65457 9.92257 8.39083 10.4598 8.28398C10.9969 8.17713 11.5537 8.23197 12.0597 8.44156C12.5657 8.65116 12.9982 9.0061 13.3025 9.4615C13.6068 9.9169 13.7692 10.4523 13.7692 11C13.7692 11.7344 13.4775 12.4388 12.9581 12.9581C12.4388 13.4775 11.7344 13.7692 11 13.7692ZM15.1538 2H6.84615C5.5613 2.00137 4.32946 2.51239 3.42092 3.42092C2.51239 4.32946 2.00137 5.5613 2 6.84615V15.1538C2.00137 16.4387 2.51239 17.6705 3.42092 18.5791C4.32946 19.4876 5.5613 19.9986 6.84615 20H15.1538C16.4387 19.9986 17.6705 19.4876 18.5791 18.5791C19.4876 17.6705 19.9986 16.4387 20 15.1538V6.84615C19.9986 5.5613 19.4876 4.32946 18.5791 3.42092C17.6705 2.51239 16.4387 2.00137 15.1538 2ZM18.6154 15.1538C18.6154 16.0719 18.2507 16.9524 17.6015 17.6015C16.9524 18.2507 16.0719 18.6154 15.1538 18.6154H6.84615C5.9281 18.6154 5.04764 18.2507 4.39848 17.6015C3.74931 16.9524 3.38462 16.0719 3.38462 15.1538V6.84615C3.38462 5.9281 3.74931 5.04764 4.39848 4.39848C5.04764 3.74931 5.9281 3.38462 6.84615 3.38462H15.1538C16.0719 3.38462 16.9524 3.74931 17.6015 4.39848C18.2507 5.04764 18.6154 5.9281 18.6154 6.84615V15.1538ZM16.5385 6.5C16.5385 6.70539 16.4776 6.90616 16.3634 7.07694C16.2493 7.24771 16.0872 7.38082 15.8974 7.45941C15.7076 7.53801 15.4988 7.55858 15.2974 7.51851C15.096 7.47844 14.9109 7.37953 14.7657 7.2343C14.6205 7.08907 14.5216 6.90404 14.4815 6.70259C14.4414 6.50115 14.462 6.29235 14.5406 6.1026C14.6192 5.91284 14.7523 5.75066 14.9231 5.63655C15.0938 5.52244 15.2946 5.46154 15.5 5.46154C15.7754 5.46154 16.0396 5.57095 16.2343 5.7657C16.4291 5.96045 16.5385 6.22458 16.5385 6.5Z" fill="white"/>
</svg>
