<svg width="22" height="22" viewBox="0 0 22 22" fill="none" xmlns="http://www.w3.org/2000/svg">
<path d="M18.6154 2H3.38462C3.01739 2 2.66521 2.14588 2.40554 2.40554C2.14588 2.66521 2 3.01739 2 3.38462V18.6154C2 18.9826 2.14588 19.3348 2.40554 19.5945C2.66521 19.8541 3.01739 20 3.38462 20H18.6154C18.9826 20 19.3348 19.8541 19.5945 19.5945C19.8541 19.3348 20 18.9826 20 18.6154V3.38462C20 3.01739 19.8541 2.66521 19.5945 2.40554C19.3348 2.14588 18.9826 2 18.6154 2ZM18.6154 18.6154H3.38462V3.38462H18.6154V18.6154ZM8.23077 9.61539V15.1538C8.23077 15.3375 8.15783 15.5135 8.028 15.6434C7.89816 15.7732 7.72207 15.8462 7.53846 15.8462C7.35485 15.8462 7.17876 15.7732 7.04893 15.6434C6.91909 15.5135 6.84615 15.3375 6.84615 15.1538V9.61539C6.84615 9.43177 6.91909 9.25568 7.04893 9.12585C7.17876 8.99602 7.35485 8.92308 7.53846 8.92308C7.72207 8.92308 7.89816 8.99602 8.028 9.12585C8.15783 9.25568 8.23077 9.43177 8.23077 9.61539ZM15.8462 12.0385V15.1538C15.8462 15.3375 15.7732 15.5135 15.6434 15.6434C15.5135 15.7732 15.3375 15.8462 15.1538 15.8462C14.9702 15.8462 14.7941 15.7732 14.6643 15.6434C14.5345 15.5135 14.4615 15.3375 14.4615 15.1538V12.0385C14.4615 11.5794 14.2792 11.1392 13.9546 10.8146C13.63 10.49 13.1898 10.3077 12.7308 10.3077C12.2717 10.3077 11.8315 10.49 11.5069 10.8146C11.1823 11.1392 11 11.5794 11 12.0385V15.1538C11 15.3375 10.9271 15.5135 10.7972 15.6434C10.6674 15.7732 10.4913 15.8462 10.3077 15.8462C10.1241 15.8462 9.94799 15.7732 9.81816 15.6434C9.68832 15.5135 9.61539 15.3375 9.61539 15.1538V9.61539C9.61624 9.44581 9.67931 9.28244 9.79263 9.15628C9.90594 9.03012 10.0616 8.94994 10.2301 8.93094C10.3986 8.91194 10.5683 8.95546 10.7068 9.05323C10.8454 9.15099 10.9432 9.29622 10.9818 9.46135C11.4502 9.14364 11.9962 8.95951 12.5613 8.92872C13.1264 8.89793 13.6892 9.02165 14.1893 9.28659C14.6893 9.55153 15.1078 9.94769 15.3997 10.4325C15.6916 10.9173 15.846 11.4725 15.8462 12.0385ZM8.57692 7.19231C8.57692 7.3977 8.51602 7.59847 8.40191 7.76925C8.2878 7.94002 8.12562 8.07312 7.93586 8.15172C7.74611 8.23032 7.53731 8.25089 7.33587 8.21082C7.13443 8.17075 6.94939 8.07184 6.80416 7.92661C6.65893 7.78138 6.56002 7.59634 6.51995 7.3949C6.47988 7.19346 6.50045 6.98466 6.57905 6.79491C6.65765 6.60515 6.79075 6.44297 6.96152 6.32886C7.1323 6.21475 7.33307 6.15385 7.53846 6.15385C7.81388 6.15385 8.07802 6.26326 8.27277 6.458C8.46751 6.65275 8.57692 6.91689 8.57692 7.19231Z" fill="white"/>
</svg>
