<svg width="38" height="32" viewBox="0 0 38 32" fill="none" xmlns="http://www.w3.org/2000/svg">
<rect width="38" height="32" rx="4" fill="#0A6B6C"/>
<path d="M22.3 20.7L23.7 19.3L20 15.6V11H18V16.4L22.3 20.7ZM19 26C17.6167 26 16.3167 25.7375 15.1 25.2125C13.8833 24.6875 12.825 23.975 11.925 23.075C11.025 22.175 10.3125 21.1167 9.7875 19.9C9.2625 18.6833 9 17.3833 9 16C9 14.6167 9.2625 13.3167 9.7875 12.1C10.3125 10.8833 11.025 9.825 11.925 8.925C12.825 8.025 13.8833 7.3125 15.1 6.7875C16.3167 6.2625 17.6167 6 19 6C20.3833 6 21.6833 6.2625 22.9 6.7875C24.1167 7.3125 25.175 8.025 26.075 8.925C26.975 9.825 27.6875 10.8833 28.2125 12.1C28.7375 13.3167 29 14.6167 29 16C29 17.3833 28.7375 18.6833 28.2125 19.9C27.6875 21.1167 26.975 22.175 26.075 23.075C25.175 23.975 24.1167 24.6875 22.9 25.2125C21.6833 25.7375 20.3833 26 19 26ZM19 24C21.2167 24 23.1042 23.2208 24.6625 21.6625C26.2208 20.1042 27 18.2167 27 16C27 13.7833 26.2208 11.8958 24.6625 10.3375C23.1042 8.77917 21.2167 8 19 8C16.7833 8 14.8958 8.77917 13.3375 10.3375C11.7792 11.8958 11 13.7833 11 16C11 18.2167 11.7792 20.1042 13.3375 21.6625C14.8958 23.2208 16.7833 24 19 24Z" fill="white"/>
</svg>
