<svg width="22" height="22" viewBox="0 0 22 22" fill="none" xmlns="http://www.w3.org/2000/svg">
<path d="M21.9463 5.5627C21.893 5.43326 21.8029 5.32262 21.6872 5.24477C21.5714 5.16691 21.4354 5.12534 21.2962 5.12531H18.6194C18.2452 4.48444 17.7125 3.95195 17.0733 3.57959C16.4341 3.20723 15.71 3.00769 14.9715 3.00036C14.4213 2.99309 13.8752 3.09667 13.3653 3.30498C12.8554 3.51329 12.3921 3.82214 12.0026 4.21335C11.6017 4.60932 11.2835 5.08197 11.0668 5.6035C10.85 6.12504 10.739 6.68493 10.7403 7.25027V7.78948C7.1988 6.84918 4.30209 3.9495 4.2713 3.91851C4.17689 3.82264 4.05722 3.75593 3.9264 3.72621C3.79558 3.6965 3.65904 3.70503 3.53288 3.7508C3.40671 3.79658 3.29616 3.87768 3.21426 3.98457C3.13235 4.09146 3.0825 4.21968 3.07056 4.35413C2.69143 8.58545 3.9124 11.417 5.00581 13.047C5.53896 13.8528 6.18753 14.5748 6.93051 15.1896C5.59079 16.7417 3.48137 17.5572 3.45849 17.566C3.35919 17.6035 3.26958 17.663 3.19635 17.7402C3.12312 17.8174 3.06817 17.9102 3.03561 18.0118C3.00304 18.1134 2.9937 18.2211 3.00828 18.3268C3.02287 18.4325 3.061 18.5335 3.11983 18.6223C3.1858 18.7215 3.4497 19.0694 4.09449 19.3944C4.89146 19.7964 5.94441 20 7.22167 20C13.4382 20 18.6326 15.1817 19.163 8.98211L21.7941 6.33477C21.8925 6.23565 21.9595 6.1094 21.9865 5.97197C22.0136 5.83454 21.9996 5.69211 21.9463 5.5627ZM17.9878 8.16666C17.8672 8.28839 17.7946 8.45015 17.7837 8.62175C17.4257 14.2077 12.7882 18.5834 7.22167 18.5834C6.29275 18.5834 5.63829 18.4594 5.17911 18.3107C6.19159 17.7573 7.60345 16.8055 8.51125 15.4349C8.56454 15.3543 8.60084 15.2636 8.61792 15.1683C8.635 15.073 8.6325 14.9753 8.61058 14.881C8.58865 14.7867 8.54776 14.698 8.49043 14.6203C8.4331 14.5426 8.36056 14.4775 8.27726 14.4291C8.23592 14.4052 4.41468 12.0969 4.40677 5.92925C5.81422 7.08027 8.38722 8.86612 11.327 9.36371C11.4278 9.38081 11.531 9.37562 11.6296 9.3485C11.7282 9.32138 11.8197 9.27299 11.8978 9.20668C11.9759 9.14037 12.0387 9.05773 12.0819 8.96452C12.125 8.87131 12.1475 8.76975 12.1478 8.6669V7.25027C12.147 6.87242 12.2213 6.49824 12.3663 6.14973C12.5113 5.80122 12.7241 5.48543 12.9922 5.22094C13.2492 4.96178 13.5552 4.75711 13.8922 4.61902C14.2291 4.48094 14.5901 4.41224 14.9539 4.41699C16.0675 4.43116 17.1082 5.11469 17.5436 6.11784C17.5985 6.24397 17.6887 6.35125 17.8032 6.42657C17.9177 6.50189 18.0516 6.54199 18.1884 6.54195H19.5958L17.9878 8.16666Z" fill="white"/>
</svg>
