<svg width="22" height="22" viewBox="0 0 22 22" fill="none" xmlns="http://www.w3.org/2000/svg">
<path d="M13.5909 9.93239L9.51946 7.20512C9.41725 7.13659 9.29843 7.09724 9.17569 7.09127C9.05296 7.08529 8.93091 7.11292 8.82258 7.17119C8.71425 7.22947 8.6237 7.3162 8.5606 7.42215C8.49749 7.52809 8.46421 7.64926 8.46429 7.77273V13.2273C8.46421 13.3507 8.49749 13.4719 8.5606 13.5779C8.6237 13.6838 8.71425 13.7705 8.82258 13.8288C8.93091 13.8871 9.05296 13.9147 9.17569 13.9087C9.29843 13.9028 9.41725 13.8634 9.51946 13.7949L13.5909 11.0676C13.684 11.0054 13.7603 10.921 13.8131 10.822C13.8659 10.7229 13.8935 10.6123 13.8935 10.5C13.8935 10.3877 13.8659 10.2771 13.8131 10.178C13.7603 10.079 13.684 9.99463 13.5909 9.93239ZM9.82143 11.9531V9.05114L11.9912 10.5L9.82143 11.9531ZM19.5191 5.51591C19.4391 5.20172 19.286 4.91112 19.0723 4.6681C18.8586 4.42507 18.5905 4.23659 18.29 4.11818C15.3823 2.98978 10.7545 3 10.5 3C10.2455 3 5.61768 2.98978 2.71 4.11818C2.40953 4.23659 2.14139 4.42507 1.92769 4.6681C1.71399 4.91112 1.56086 5.20172 1.48094 5.51591C1.26125 6.36648 1 7.92103 1 10.5C1 13.079 1.26125 14.6335 1.48094 15.4841C1.56074 15.7984 1.71382 16.0892 1.92752 16.3324C2.14123 16.5756 2.40943 16.7642 2.71 16.8827C5.49554 17.9625 9.85536 18 10.444 18H10.556C11.1446 18 15.507 17.9625 18.29 16.8827C18.5906 16.7642 18.8588 16.5756 19.0725 16.3324C19.2862 16.0892 19.4393 15.7984 19.5191 15.4841C19.7387 14.6318 20 13.079 20 10.5C20 7.92103 19.7387 6.36648 19.5191 5.51591ZM18.2052 15.1466C18.1793 15.2512 18.1292 15.3481 18.0589 15.4294C17.9885 15.5107 17.9 15.5742 17.8006 15.6145C15.116 16.656 10.55 16.6372 10.5059 16.6372H10.5C10.4542 16.6372 5.89165 16.6543 3.20536 15.6145C3.10592 15.5742 3.01741 15.5107 2.94708 15.4294C2.87675 15.3481 2.82661 15.2512 2.80076 15.1466C2.59464 14.3685 2.35714 12.9349 2.35714 10.5C2.35714 8.06506 2.59464 6.63154 2.79482 5.85767C2.82019 5.75249 2.87012 5.65488 2.94047 5.57292C3.01083 5.49097 3.09959 5.42702 3.19942 5.38637C5.78817 4.38154 10.1259 4.36364 10.4813 4.36364H10.5042C10.55 4.36364 15.1168 4.3483 17.7989 5.38637C17.8983 5.42669 17.9868 5.49012 18.0572 5.57145C18.1275 5.65278 18.1776 5.7497 18.2035 5.85426C18.4054 6.63154 18.6429 8.06506 18.6429 10.5C18.6429 12.9349 18.4054 14.3685 18.2052 15.1423V15.1466Z" fill="white"/>
</svg>
